<?xml version="1.0" encoding="UTF-8"?>
<svg width="1590px" height="1200px" viewBox="0 0 1590 1200" version="1.1" xmlns="http://www.w3.org/2000/svg" xmlns:xlink="http://www.w3.org/1999/xlink">
    <!-- Generator: Sketch 55.2 (78181) - https://sketchapp.com -->
    <title>Inn</title>
    <desc>Created with Sketch.</desc>
    <g id="Patterns" stroke="none" stroke-width="1" fill="none" fill-rule="evenodd">
        <g id="Inn" fill-rule="nonzero">
            <g id="Shape">
                <path d="M217.461082,322.986248 C217.461082,308.667466 214.64931,294.488251 209.184513,281.259843 C203.719716,268.031434 195.710625,256.011159 185.613907,245.885953 C175.517189,235.760747 163.530734,227.729057 150.339545,222.248841 C137.148355,216.769279 123.009036,213.948919 108.730541,213.948919 C94.4520465,213.948919 80.3127269,216.769279 67.1215377,222.248841 C53.9303484,227.729057 41.9438936,235.760747 31.8471755,245.885953 C21.7504574,256.011159 13.7413658,268.031434 8.27656879,281.259843 C2.81177179,294.488251 0,308.667466 0,322.986248 L108.730541,322.986248 L217.461082,322.986248 Z" fill="#94C0D4"></path>
                <path d="M0,218.074656 C14.3171898,218.074656 28.4948273,215.261919 41.721765,209.797167 C54.9487027,204.332197 66.9676412,196.322432 77.0917216,186.224592 C87.2158021,176.126968 95.2465986,164.13918 100.726205,150.946089 C106.205812,137.752781 109.025204,123.612324 109.025204,109.332024 C109.025204,95.0517236 106.205812,80.9112666 100.726205,67.717958 C95.2465986,54.5246493 87.2158021,42.537079 77.0917216,32.4394556 C66.9676412,22.3416147 54.9487027,14.3317629 41.721765,8.86692365 C28.4948273,3.40210615 14.3171898,0.589390963 0,0.589390963 L0,109.332024 L0,218.074656 Z" fill="#F45B0F"></path>
                <path d="M239.266123,588.801572 C224.948933,588.801572 210.771296,585.981866 197.544358,580.50165 C184.31742,575.021434 172.298482,566.989745 162.174401,556.864538 C152.050321,546.739332 144.019524,534.719057 138.539918,521.490648 C133.060311,508.26224 130.240919,494.083026 130.240919,479.764244 L239.266123,479.764244 L239.266123,588.801572 Z" fill="#161616"></path>
                <path d="M0,348.330059 C14.3171898,348.330059 28.4948273,351.149764 41.721765,356.62998 C54.9487027,362.110196 66.9676412,370.141886 77.0917216,380.267092 C87.2158021,390.392299 95.2465986,402.412574 100.726205,415.640982 C106.205812,428.869391 109.025204,443.048605 109.025204,457.367387 L0,457.367387 L0,348.330059 Z" fill="#F45B0F"></path>
                <path d="M130.240919,110.21611 C130.240919,95.89711 133.060311,81.718332 138.539918,68.4892692 C144.019524,55.2602063 152.050321,43.2401493 162.174401,33.1151611 C172.298482,22.9899548 184.31742,14.9583961 197.544358,9.47874695 C210.771296,3.99911965 224.948933,1.17878193 239.266123,1.17878193 L239.266123,110.21611 L130.240919,110.21611 Z" fill="#FFD726"></path>
                <path d="M0,534.282908 C0,504.17334 24.4063821,479.764244 54.5126019,479.764244 L109.025204,479.764244 L109.025204,588.801572 L54.5126019,588.801572 C24.4063821,588.801572 0,564.392475 0,534.282908 L0,534.282908 Z" fill="#FFD726"></path>
                <path d="M130.240919,403.438114 C130.240919,433.547682 154.647301,457.956778 184.753521,457.956778 L239.266123,457.956778 L239.266123,348.91945 L184.753521,348.91945 C154.647301,348.91945 130.240919,373.328546 130.240919,403.438114 L130.240919,403.438114 Z" fill="#048ECB"></path>
                <ellipse fill="#FFD726" cx="195.950704" cy="174.75442" rx="43.3154188" ry="43.3202358"></ellipse>
                <path d="M1587.6427,218.074656 C1587.6427,203.755656 1584.82331,189.576878 1579.3437,176.347815 C1573.86409,163.118752 1565.8333,151.098695 1555.70922,140.973707 C1545.58514,130.848501 1533.5662,122.817029 1520.33926,117.33725 C1507.11232,111.857688 1492.93468,109.037328 1478.61749,109.037328 L1478.61749,218.074656 L1587.6427,218.074656 Z" fill="#94C0D4"></path>
                <path d="M1239.35137,110.21611 C1246.47137,110.21611 1253.52166,108.806039 1260.09969,106.066149 C1266.67763,103.326259 1272.65462,99.3104145 1277.6893,94.2480295 C1282.72398,89.1854263 1286.71746,83.1752888 1289.44224,76.5608664 C1292.16702,69.9462259 1293.56931,62.8568369 1293.56931,55.697446 C1293.56931,48.538055 1292.16702,41.448666 1289.44224,34.8340255 C1286.71746,28.2196031 1282.72398,22.2094438 1277.6893,17.1469279 C1272.65462,12.084412 1266.67763,8.068589 1260.09969,5.32876444 C1253.52166,2.58894861 1246.47137,1.17878193 1239.35137,1.17878193 L1239.35137,55.697446 L1239.35137,110.21611 Z" fill="#94C0D4"></path>
                <path d="M1457.40178,0.589390963 C1443.08437,0.589390963 1428.90717,3.40210615 1415.67958,8.86692365 C1402.4522,14.3317629 1390.43327,22.3416147 1380.3094,32.4394556 C1370.18532,42.537079 1362.15474,54.5246493 1356.67557,67.717958 C1351.19662,80.9112666 1348.37658,95.0517236 1348.37658,109.332024 C1348.37658,123.612324 1351.19662,137.752781 1356.67557,150.946089 C1362.15474,164.13918 1370.18532,176.126968 1380.3094,186.224592 C1390.43327,196.322432 1402.4522,204.332197 1415.67958,209.797167 C1428.90717,215.261919 1443.08437,218.074656 1457.40178,218.074656 L1457.40178,109.332024 L1457.40178,0.589390963 Z" fill="#F45B0F"></path>
                <path d="M1348.37658,479.174853 C1348.37658,464.856071 1351.19662,450.676857 1356.67557,437.448448 C1362.15474,424.220039 1370.18532,412.199764 1380.3094,402.074558 C1390.43327,391.949352 1402.4522,383.917662 1415.67958,378.437446 C1428.90717,372.95723 1443.08437,370.137525 1457.40178,370.137525 L1457.40178,479.174853 L1348.37658,479.174853 Z" fill="#161616"></path>
                <path d="M1478.61749,587.62279 C1492.93468,587.62279 1507.11232,584.810705 1520.33926,579.345301 C1533.5662,573.879896 1545.58514,565.869914 1555.70922,555.772073 C1565.8333,545.674232 1573.86409,533.686444 1579.3437,520.493788 C1584.82331,507.301132 1587.6427,493.16024 1587.6427,478.880157 C1587.6427,464.600075 1584.82331,450.459183 1579.3437,437.266527 C1573.86409,424.07387 1565.8333,412.086083 1555.70922,401.988242 C1545.58514,391.890401 1533.5662,383.880418 1520.33926,378.415014 C1507.11232,372.949609 1492.93468,370.137525 1478.61749,370.137525 L1478.61749,478.880157 L1478.61749,587.62279 Z" fill="#94C0D4"></path>
                <path d="M1239.35137,240.471513 C1253.66877,240.471513 1267.84597,243.283597 1281.07356,248.749002 C1294.30116,254.214407 1306.31988,262.224389 1316.44374,272.32223 C1326.56782,282.420071 1334.59862,294.407859 1340.07758,307.600515 C1345.55653,320.793171 1348.37658,334.934063 1348.37658,349.214145 C1348.37658,363.494228 1345.55653,377.63512 1340.07758,390.827776 C1334.59862,404.020432 1326.56782,416.00822 1316.44396,426.106061 C1306.31988,436.203902 1294.30116,444.213884 1281.07356,449.679289 C1267.84597,455.144694 1253.66879,457.956778 1239.35137,457.956778 L1239.35137,349.214145 L1239.35137,240.471513 Z" fill="#E6E6E6"></path>
                <path d="M1369.59229,239.882122 C1369.59229,254.200904 1372.40471,268.380118 1377.86886,281.608527 C1383.33322,294.836935 1391.3421,306.85721 1401.43881,316.982417 C1411.53531,327.107623 1423.52177,335.139312 1436.71339,340.619528 C1449.90523,346.099745 1464.04434,348.91945 1478.32283,348.91945 C1492.60133,348.91945 1506.74065,346.099745 1519.93184,340.619528 C1533.12302,335.139312 1545.10948,327.107623 1555.2062,316.982417 C1565.30292,306.85721 1573.31201,294.836935 1578.7768,281.608527 C1584.2416,268.380118 1587.05337,254.200904 1587.05337,239.882122 L1478.32283,239.882122 L1369.59229,239.882122 Z" fill="#94C0D4"></path>
                <path d="M1348.37658,534.282908 C1348.37658,564.392475 1323.97041,588.801572 1293.86398,588.801572 L1239.35137,588.801572 L1239.35137,479.764244 L1293.86398,479.764244 C1323.97041,479.764244 1348.37658,504.17334 1348.37658,534.282908 L1348.37658,534.282908 Z" fill="#F45B0F"></path>
                <ellipse fill="#FFD726" cx="1521.93291" cy="44.4990177" rx="43.3154188" ry="43.3202358"></ellipse>
                <ellipse fill="#F45B0F" cx="1282.66679" cy="174.75442" rx="43.3154188" ry="43.3202358"></ellipse>
                <ellipse fill="#FFD726" cx="1412.90771" cy="545.481336" rx="43.3154188" ry="43.3202358"></ellipse>
                <path d="M608.773165,370.137525 C608.773165,384.456525 605.953774,398.635303 600.474167,411.864365 C594.99456,425.093428 586.963764,437.113485 576.839683,447.238473 C566.715603,457.36368 554.696664,465.395151 541.469726,470.874931 C528.242789,476.354493 514.065151,479.174853 499.747961,479.174853 L499.747961,370.137525 L608.773165,370.137525 Z" fill="#FFD726"></path>
                <path d="M957.064492,500.982318 C949.944592,500.982318 942.894092,499.572248 936.316371,496.832358 C929.738651,494.092468 923.761665,490.076623 918.725903,485.014238 C913.69231,479.951635 909.697532,473.941497 906.973623,467.327075 C904.249713,460.712434 902.846553,453.623045 902.846553,446.463654 C902.846553,439.304263 904.249713,432.214874 906.973623,425.600234 C909.697532,418.985811 913.69231,412.975674 918.725903,407.913071 C923.761665,402.850686 929.738651,398.834841 936.316371,396.094951 C942.894092,393.355061 949.944592,391.94499 957.064492,391.94499 L957.064492,500.982318 Z" fill="#161616"></path>
                <path d="M717.798369,109.037328 C710.678469,109.037328 703.627969,107.626385 697.050248,104.887367 C690.472528,102.14835 684.495542,98.1314145 679.45978,93.0699018 C674.426187,88.0062083 670.431409,81.9960707 667.707499,75.3818664 C664.98359,68.7676621 663.58043,61.678055 663.58043,54.518664 C663.58043,47.3592731 664.98359,40.269666 667.707499,33.6554617 C670.431409,27.0412574 674.426187,21.0311198 679.45978,15.9674263 C684.495542,10.9059136 690.472528,6.88897839 697.050248,4.14996071 C703.627969,1.41094303 710.678469,0 717.798369,0 L717.798369,109.037328 Z" fill="#F45B0F"></path>
                <path d="M260.481838,478.585462 C267.60184,478.585462 274.652128,479.995532 281.230156,482.735422 C287.808097,485.475312 293.785086,489.491157 298.819767,494.553542 C303.854448,499.616145 307.847927,505.626283 310.572706,512.240705 C313.297484,518.855346 314.699778,525.944735 314.699778,533.104126 C314.699778,540.263517 313.297484,547.352906 310.572706,553.967546 C307.847927,560.581969 303.854448,566.592128 298.819767,571.654644 C293.785086,576.71716 287.808097,580.732983 281.230156,583.472807 C274.652128,586.212623 267.60184,587.62279 260.481838,587.62279 L260.481838,478.585462 Z" fill="#94C0D4"></path>
                <path d="M478.532246,587.62279 C464.214838,587.62279 450.037637,584.810075 436.810045,579.345257 C423.582671,573.880418 411.563733,565.870566 401.43987,555.772725 C391.31579,545.675102 383.285211,533.687531 377.806041,520.494223 C372.327088,507.300914 369.507042,493.160457 369.507042,478.880157 C369.507042,464.599857 372.327088,450.4594 377.806041,437.266092 C383.285211,424.073 391.31579,412.085213 401.43987,401.987589 C411.563733,391.889748 423.582671,383.879983 436.810045,378.415014 C450.037637,372.950261 464.214838,370.137525 478.532246,370.137525 L478.532246,587.62279 Z" fill="#94C0D4"></path>
                <path d="M369.507042,109.037328 L478.532246,109.037328 L478.532246,218.074656 C464.214838,218.074656 450.037637,215.254951 436.810045,209.774735 C423.582671,204.294519 411.563733,196.262829 401.43987,186.137623 C391.31579,176.012417 383.285211,163.992141 377.806041,150.763733 C372.327088,137.535324 369.507042,123.35611 369.507042,109.037328 Z" fill="#F45B0F"></path>
                <path d="M499.747961,0.589390963 C514.065151,0.589390963 528.242789,3.40147544 541.469726,8.86688016 C554.696664,14.3322849 566.715603,22.3422672 576.839683,32.4401081 C586.963764,42.5379489 594.99456,54.5257367 600.474167,67.7183929 C605.953774,80.9110491 608.773165,95.0519411 608.773165,109.332024 C608.773165,123.612106 605.953774,137.752998 600.474167,150.945654 C594.99456,164.13831 586.963764,176.126098 576.839683,186.223939 C566.715603,196.32178 554.696664,204.331762 541.469726,209.797167 C528.242789,215.262572 514.065151,218.074656 499.747961,218.074656 L499.747961,0.589390963 Z" fill="#FFD726"></path>
                <path d="M739.60341,587.62279 C739.60341,573.303812 742.415182,559.125012 747.879979,545.895949 C753.344776,532.666886 761.353867,520.646829 771.450585,510.521841 C781.547303,500.396635 793.533758,492.365163 806.724948,486.885383 C819.916137,481.405821 834.055456,478.585462 848.333951,478.585462 C862.612446,478.585462 876.751765,481.405821 889.942955,486.885383 C903.134144,492.365163 915.120599,500.396635 925.217317,510.521841 C935.314035,520.646829 943.323126,532.666886 948.787923,545.895949 C954.25272,559.125012 957.064492,573.303812 957.064492,587.62279 L739.60341,587.62279 Z" fill="#048ECB"></path>
                <path d="M1195.74129,265.225933 C1195.74129,279.544715 1192.92952,293.723929 1187.46472,306.952338 C1181.99992,320.180747 1173.99083,332.201022 1163.89411,342.326228 C1153.7974,352.451434 1141.81094,360.483124 1128.61975,365.96334 C1115.42856,371.442902 1101.28924,374.263261 1087.01075,374.263261 C1072.73225,374.263261 1058.59293,371.442902 1045.40175,365.96334 C1032.21056,360.483124 1020.2241,352.451434 1010.12738,342.326228 C1000.03067,332.201022 992.021573,320.180747 986.556776,306.952338 C981.091979,293.723929 978.280208,279.544715 978.280208,265.225933 L1195.74129,265.225933 Z" fill="#FFD726"></path>
                <path d="M978.280208,370.137525 C992.597397,370.137525 1006.77503,372.950261 1020.00197,378.415014 C1033.22891,383.879983 1045.24785,391.889748 1055.37193,401.987589 C1065.49601,412.085213 1073.52681,424.073 1079.00641,437.266092 C1084.48602,450.4594 1087.30541,464.599857 1087.30541,478.880157 C1087.30541,493.160457 1084.48602,507.300914 1079.00641,520.494223 C1073.52681,533.687531 1065.49601,545.675102 1055.37193,555.772725 C1045.24785,565.870566 1033.22891,573.880418 1020.00197,579.345257 C1006.77503,584.810075 992.597397,587.62279 978.280208,587.62279 L978.280208,370.137525 Z" fill="#F45B0F"></path>
                <path d="M869.844329,239.292731 C869.844329,224.973949 872.656101,210.794735 878.120898,197.566326 C883.585695,184.337917 891.594787,172.317642 901.691505,162.192436 C911.788223,152.06723 923.774678,144.03554 936.965867,138.555324 C950.157056,133.075108 964.296376,130.255403 978.57487,130.255403 C992.853365,130.255403 1006.99268,133.075108 1020.18387,138.555324 C1033.37506,144.03554 1045.36152,152.06723 1055.45824,162.192436 C1065.55495,172.317642 1073.56405,184.337917 1079.02884,197.566326 C1084.49364,210.794735 1087.30541,224.973949 1087.30541,239.292731 L869.844329,239.292731 Z" fill="#048ECB"></path>
                <path d="M957.064492,0 C957.064492,14.3187819 954.25272,28.4979961 948.787923,41.7264047 C943.323126,54.9548134 935.314035,66.9750884 925.217317,77.1002947 C915.120599,87.225501 903.134144,95.2571906 889.942955,100.737407 C876.751765,106.217623 862.612446,109.037328 848.333951,109.037328 C834.055456,109.037328 819.916137,106.217623 806.724948,100.737407 C793.533758,95.2571906 781.547303,87.225501 771.450585,77.1002947 C761.353867,66.9750884 753.344776,54.9548134 747.879979,41.7264047 C742.415182,28.4979961 739.60341,14.3187819 739.60341,0 L957.064492,0 Z" fill="#FFD726"></path>
                <path d="M717.798369,347.740668 C703.481179,347.740668 689.303542,344.928583 676.076604,339.463179 C662.849666,333.997774 650.830728,325.987792 640.706648,315.889951 C630.582567,305.79211 622.551771,293.804322 617.072164,280.611666 C611.592557,267.41901 608.773165,253.278118 608.773165,238.998035 C608.773165,224.717953 611.592557,210.577061 617.072164,197.384405 C622.551771,184.191749 630.582567,172.203961 640.706648,162.10612 C650.830728,152.008279 662.849666,143.998297 676.076604,138.532892 C689.303542,133.067487 703.481179,130.255403 717.798369,130.255403 L717.798369,347.740668 Z" fill="#94C0D4"></path>
                <path d="M260.481838,347.740668 L260.481838,130.255403 C274.799256,130.255403 288.976437,133.067487 302.204031,138.532892 C315.431624,143.998297 327.450346,152.008279 337.574428,162.10612 C347.698292,172.203961 355.729089,184.191749 361.208043,197.384405 C366.686996,210.577061 369.507042,224.717953 369.507042,238.998035 C369.507042,253.278118 366.686996,267.41901 361.208043,280.611666 C355.729089,293.804322 347.698292,305.79211 337.57421,315.889951 C327.450346,325.987792 315.431624,333.997774 302.204031,339.463179 C288.976437,344.928583 274.799234,347.740668 260.481838,347.740668 Z" fill="#FFD726"></path>
                <path d="M390.722758,348.330059 C390.722758,334.011277 393.535182,319.832063 398.999326,306.603654 C404.463688,293.375246 412.472563,281.354971 422.569281,271.229764 C432.665781,261.104558 444.652236,253.072868 457.84386,247.592652 C471.035702,242.112436 485.174804,239.292731 499.453299,239.292731 C513.731793,239.292731 527.871113,242.112436 541.062302,247.592652 C554.253491,253.072868 566.239946,261.104558 576.336664,271.229764 C586.433382,281.354971 594.442474,293.375246 599.907271,306.603654 C605.372068,319.832063 608.18384,334.011277 608.18384,348.330059 L390.722758,348.330059 Z" fill="#F45B0F"></path>
                <path d="M848.039288,370.137525 C848.039288,384.456525 845.227517,398.635303 839.76272,411.864365 C834.297923,425.093428 826.288831,437.113485 816.192113,447.238473 C806.095395,457.36368 794.10894,465.395151 780.917751,470.874931 C767.726561,476.354493 753.587242,479.174853 739.308747,479.174853 C725.030253,479.174853 710.890933,476.354493 697.699744,470.874931 C684.508554,465.395151 672.5221,457.36368 662.425382,447.238473 C652.328664,437.113485 644.319572,425.093428 638.854775,411.864365 C633.389978,398.635303 630.578206,384.456525 630.578206,370.137525 L848.039288,370.137525 Z" fill="#F45B0F"></path>
                <path d="M848.039288,239.292731 L739.014085,239.292731 L739.014085,130.255403 C753.331274,130.255403 767.508912,133.075108 780.73585,138.555324 C793.962787,144.03554 805.981726,152.06723 816.105806,162.192436 C826.229887,172.317642 834.260683,184.337917 839.74029,197.566326 C845.219897,210.794735 848.039288,224.973949 848.039288,239.292731 Z" fill="#161616"></path>
                <path d="M1217.54633,0 L1217.54633,109.037328 L1108.52113,109.037328 C1108.52113,94.7185462 1111.34052,80.539332 1116.82013,67.3109234 C1122.29973,54.0825147 1130.33053,42.0622397 1140.45461,31.9370334 C1150.57869,21.8118271 1162.59763,13.7801375 1175.82457,8.29992141 C1189.0515,2.8197053 1203.22914,0 1217.54633,0 Z" fill="#161616"></path>
                <path d="M848.039288,261.100196 L957.064492,261.100196 L957.064492,370.137525 C942.747302,370.137525 928.569665,367.317819 915.342727,361.837603 C902.115789,356.357387 890.096851,348.325697 879.972771,338.200491 C869.84869,328.075285 861.817894,316.05501 856.338287,302.826601 C850.85868,289.598193 848.039288,275.418978 848.039288,261.100196 Z" fill="#F45B0F"></path>
                <path d="M1108.52113,478.585462 L1217.54633,478.585462 L1217.54633,587.62279 C1203.22914,587.62279 1189.0515,584.802452 1175.82457,579.322825 C1162.59763,573.843176 1150.57869,565.811617 1140.45461,555.686411 C1130.33053,545.561422 1122.29973,533.541365 1116.82013,520.312303 C1111.34052,507.08324 1108.52113,492.904462 1108.52113,478.585462 Z" fill="#E6E6E6"></path>
                <path d="M663.285767,478.585462 C693.391987,478.585462 717.798369,502.994339 717.798369,533.104126 L717.798369,587.62279 L608.773165,587.62279 L608.773165,533.104126 C608.773165,502.994339 633.179547,478.585462 663.285767,478.585462 Z" fill="#E6E6E6"></path>
                <path d="M369.507042,54.518664 C369.507042,84.6282318 345.10088,109.037328 314.99444,109.037328 L260.481838,109.037328 L260.481838,0 L314.99444,0 C345.10088,0 369.507042,24.4090963 369.507042,54.518664 Z" fill="#048ECB"></path>
                <path d="M978.280208,54.518664 C978.280208,24.4090963 1002.68659,0 1032.79281,0 L1087.30541,0 L1087.30541,109.037328 L1032.79281,109.037328 C1002.68659,109.037328 978.280208,84.6282318 978.280208,54.518664 Z" fill="#048ECB"></path>
                <path d="M1108.52113,184.774067 C1108.52113,154.664499 1132.92751,130.255403 1163.03373,130.255403 L1217.54633,130.255403 L1217.54633,239.292731 L1163.03373,239.292731 C1132.92751,239.292731 1108.52113,214.883635 1108.52113,184.774067 Z" fill="#94C0D4"></path>
                <path d="M543.06338,500.982318 C566.985826,500.982318 586.378799,520.377448 586.378799,544.302554 C586.378799,568.22766 566.985826,587.62279 543.06338,587.62279 C519.140935,587.62279 499.747961,568.22766 499.747961,544.302554 C499.747961,520.377448 519.140935,500.982318 543.06338,500.982318 Z" fill="#F45B0F"></path>
                <path d="M303.797257,370.726916 C327.719702,370.726916 347.112676,390.122046 347.112676,414.047151 C347.112676,437.972257 327.719702,457.367387 303.797257,457.367387 C279.874812,457.367387 260.481838,437.972257 260.481838,414.047151 C260.481838,390.122046 279.874812,370.726916 303.797257,370.726916 Z" fill="#E6E6E6"></path>
                <path d="M434.038176,0 C457.960622,0 477.353595,19.3951302 477.353595,43.3202358 C477.353595,67.2453413 457.960622,86.6404715 434.038176,86.6404715 C410.115731,86.6404715 390.722758,67.2453413 390.722758,43.3202358 C390.722758,19.3951302 410.115731,0 434.038176,0 Z" fill="#161616"></path>
                <path d="M782.918829,261.689587 C806.841274,261.689587 826.234248,281.084718 826.234248,305.009823 C826.234248,328.934929 806.841274,348.330059 782.918829,348.330059 C758.996384,348.330059 739.60341,328.934929 739.60341,305.009823 C739.60341,281.084718 758.996384,261.689587 782.918829,261.689587 Z" fill="#94C0D4"></path>
                <path d="M1174.23091,370.726916 C1198.15336,370.726916 1217.54633,390.122046 1217.54633,414.047151 C1217.54633,437.972257 1198.15336,457.367387 1174.23091,457.367387 C1150.30847,457.367387 1130.91549,437.972257 1130.91549,414.047151 C1130.91549,390.122046 1150.30847,370.726916 1174.23091,370.726916 Z" fill="#FFD726"></path>
                <path d="M348.291327,982.514735 C348.291327,996.833735 345.471935,1011.01251 339.992328,1024.24158 C334.512722,1037.47064 326.481925,1049.4907 316.357845,1059.61568 C306.233764,1069.74089 294.214826,1077.77236 280.987888,1083.25214 C267.76095,1088.7317 253.583313,1091.55206 239.266123,1091.55206 L239.266123,982.514735 L348.291327,982.514735 Z" fill="#94C0D4"></path>
                <path d="M696.582654,1113.35953 C689.462754,1113.35953 682.412253,1111.94946 675.834533,1109.20957 C669.256812,1106.46968 663.279827,1102.45383 658.244065,1097.39145 C653.210471,1092.32884 649.215693,1086.31871 646.491784,1079.70428 C643.767875,1073.08964 642.364715,1066.00026 642.364715,1058.84086 C642.364715,1051.68147 643.767875,1044.59208 646.491784,1037.97744 C649.215693,1031.36302 653.210471,1025.35288 658.244065,1020.29028 C663.279827,1015.2279 669.256812,1011.21205 675.834533,1008.47216 C682.412253,1005.73227 689.462754,1004.3222 696.582654,1004.3222 L696.582654,1113.35953 Z" fill="#FFD726"></path>
                <path d="M457.316531,721.414538 C450.196631,721.414538 443.14613,720.003595 436.56841,717.264578 C429.990689,714.52556 424.013704,710.508625 418.977942,705.447112 C413.944348,700.383418 409.94957,694.373281 407.225661,687.759077 C404.501752,681.144872 403.098592,674.055265 403.098592,666.895874 C403.098592,659.736483 404.501752,652.646876 407.225661,646.032672 C409.94957,639.418468 413.944348,633.40833 418.977942,628.344637 C424.013704,623.283124 429.990689,619.266189 436.56841,616.527171 C443.14613,613.788153 450.196631,612.37721 457.316531,612.37721 L457.316531,721.414538 Z" fill="#161616"></path>
                <path d="M0,1090.96267 C7.12000115,1090.96267 14.1702894,1092.37274 20.7483174,1095.11263 C27.3262587,1097.85252 33.303248,1101.86837 38.3379289,1106.93075 C43.3726098,1111.99336 47.3660887,1118.00349 50.0908672,1124.61792 C52.8156456,1131.23256 54.2179392,1138.32194 54.2179392,1145.48134 C54.2179392,1152.64073 52.8156456,1159.73012 50.0908672,1166.34476 C47.3660887,1172.95918 43.3726098,1178.96934 38.3379289,1184.03185 C33.303248,1189.09437 27.3262587,1193.11019 20.7483174,1195.85002 C14.1702894,1198.58983 7.12000115,1200 0,1200 L0,1090.96267 Z" fill="#161616"></path>
                <path d="M218.050408,1200 C203.733,1200 189.555798,1197.18728 176.328207,1191.72247 C163.100833,1186.25763 151.081894,1178.24778 140.958032,1168.14994 C130.833951,1158.05231 122.803373,1146.06474 117.324202,1132.87143 C111.84525,1119.67812 109.025204,1105.53767 109.025204,1091.25737 C109.025204,1076.97707 111.84525,1062.83661 117.324202,1049.6433 C122.803373,1036.45021 130.833951,1024.46242 140.958032,1014.3648 C151.081894,1004.26696 163.100833,996.257194 176.328207,990.792224 C189.555798,985.327472 203.733,982.514735 218.050408,982.514735 L218.050408,1200 Z" fill="#FFD726"></path>
                <path d="M109.025204,720.825147 L218.050408,720.825147 L218.050408,829.862475 C203.733,829.862475 189.555798,827.04277 176.328207,821.562554 C163.100833,816.082338 151.081894,808.050648 140.958032,797.925442 C130.833951,787.800236 122.803373,775.779961 117.324202,762.551552 C111.84525,749.323143 109.025204,735.143929 109.025204,720.825147 Z" fill="#F45B0F"></path>
                <path d="M239.266123,612.37721 C253.583313,612.37721 267.76095,615.189295 280.987888,620.654699 C294.214826,626.120104 306.233764,634.130086 316.357845,644.227927 C326.481925,654.325768 334.512722,666.313556 339.992328,679.506212 C345.471935,692.698868 348.291327,706.83976 348.291327,721.119843 C348.291327,735.399925 345.471935,749.540817 339.992328,762.733473 C334.512722,775.92613 326.481925,787.913917 316.357845,798.011758 C306.233764,808.109599 294.214826,816.119582 280.987888,821.584986 C267.76095,827.050391 253.583313,829.862475 239.266123,829.862475 L239.266123,612.37721 Z" fill="#F45B0F"></path>
                <path d="M479.121572,1200 C479.121572,1185.68102 481.933343,1171.50222 487.39814,1158.27316 C492.862937,1145.0441 500.872029,1133.02404 510.968747,1122.89905 C521.065465,1112.77384 533.05192,1104.74237 546.243109,1099.26259 C559.434298,1093.78303 573.573618,1090.96267 587.852113,1090.96267 C602.130607,1090.96267 616.269927,1093.78303 629.461116,1099.26259 C642.652305,1104.74237 654.63876,1112.77384 664.735478,1122.89905 C674.832196,1133.02404 682.841288,1145.0441 688.306085,1158.27316 C693.770882,1171.50222 696.582654,1185.68102 696.582654,1200 L479.121572,1200 Z" fill="#94C0D4"></path>
                <path d="M935.259451,878.192534 C935.259451,892.511316 932.44768,906.69053 926.982883,919.918939 C921.518086,933.147348 913.508994,945.167623 903.412276,955.292829 C893.315558,965.418035 881.329103,973.449725 868.137914,978.929941 C854.946725,984.409503 840.807405,987.229862 826.52891,987.229862 C812.250416,987.229862 798.111096,984.409503 784.919907,978.929941 C771.728718,973.449725 759.742263,965.418035 749.645545,955.292829 C739.548827,945.167623 731.539735,933.147348 726.074938,919.918939 C720.610141,906.69053 717.798369,892.511316 717.798369,878.192534 L935.259451,878.192534 Z" fill="#FFD726"></path>
                <path d="M717.798369,982.514735 C732.115559,982.514735 746.293196,985.327472 759.520134,990.792224 C772.747072,996.257194 784.76601,1004.26696 794.890091,1014.3648 C805.014171,1024.46242 813.044968,1036.45021 818.524574,1049.6433 C824.004181,1062.83661 826.823573,1076.97707 826.823573,1091.25737 C826.823573,1105.53767 824.004181,1119.67812 818.524574,1132.87143 C813.044968,1146.06474 805.014171,1158.05231 794.890091,1168.14994 C784.76601,1178.24778 772.747072,1186.25763 759.520134,1191.72247 C746.293196,1197.18728 732.115559,1200 717.798369,1200 L717.798369,982.514735 Z" fill="#048ECB"></path>
                <path d="M609.362491,851.669941 C609.362491,837.351159 612.174263,823.171945 617.63906,809.943536 C623.103857,796.715128 631.112948,784.694853 641.209666,774.569646 C651.306384,764.44444 663.292839,756.41275 676.484028,750.932534 C689.675218,745.452318 703.814537,742.632613 718.093032,742.632613 C732.371527,742.632613 746.510846,745.452318 759.702035,750.932534 C772.893225,756.41275 784.879679,764.44444 794.976398,774.569646 C805.073116,784.694853 813.082207,796.715128 818.547004,809.943536 C824.011801,823.171945 826.823573,837.351159 826.823573,851.669941 L609.362491,851.669941 Z" fill="#F45B0F"></path>
                <path d="M696.582654,612.37721 C696.582654,626.695992 693.770882,640.875206 688.306085,654.103615 C682.841288,667.332024 674.832196,679.352299 664.735478,689.477505 C654.63876,699.602711 642.652305,707.634401 629.461116,713.114617 C616.269927,718.594833 602.130607,721.414538 587.852113,721.414538 C573.573618,721.414538 559.434298,718.594833 546.243109,713.114617 C533.05192,707.634401 521.065465,699.602711 510.968747,689.477505 C500.872029,679.352299 492.862937,667.332024 487.39814,654.103615 C481.933343,640.875206 479.121572,626.695992 479.121572,612.37721 L696.582654,612.37721 Z" fill="#F45B0F"></path>
                <path d="M457.316531,960.707269 C442.999341,960.707269 428.821703,957.895185 415.594766,952.42978 C402.367828,946.964375 390.34889,938.954393 380.224809,928.856552 C370.100729,918.758711 362.069932,906.770923 356.590325,893.578267 C351.110719,880.385611 348.291327,866.244719 348.291327,851.964637 C348.291327,837.684554 351.110719,823.543662 356.590325,810.351006 C362.069932,797.15835 370.100729,785.170562 380.224809,775.072721 C390.34889,764.97488 402.367828,756.964898 415.594766,751.499493 C428.821703,746.034088 442.999341,743.222004 457.316531,743.222004 L457.316531,960.707269 Z" fill="#94C0D4"></path>
                <path d="M0,960.707269 L0,743.222004 C14.3174173,743.222004 28.4945987,746.034088 41.7221923,751.499493 C54.9497859,756.964898 66.9685079,764.97488 77.0925897,775.072721 C87.2164534,785.170562 95.2472509,797.15835 100.726204,810.351006 C106.205158,823.543662 109.025204,837.684554 109.025204,851.964637 C109.025204,866.244719 106.205158,880.385611 100.726204,893.578267 C95.2472509,906.770923 87.2164534,918.758711 77.0923716,928.856552 C66.9685079,938.954393 54.9497859,946.964375 41.7221923,952.42978 C28.4945987,957.895185 14.3173955,960.707269 0,960.707269 Z" fill="#F45B0F"></path>
                <path d="M130.240919,960.707269 C130.240919,946.388487 133.053343,932.209273 138.517488,918.980864 C143.98185,905.752456 151.990724,893.732181 162.087442,883.606974 C172.183943,873.481768 184.170398,865.450079 197.362022,859.969862 C210.553864,854.489646 224.692966,851.669941 238.97146,851.669941 C253.249955,851.669941 267.389275,854.489646 280.580464,859.969862 C293.771653,865.450079 305.758108,873.481768 315.854826,883.606974 C325.951544,893.732181 333.960636,905.752456 339.425433,918.980864 C344.89023,932.209273 347.702001,946.388487 347.702001,960.707269 L130.240919,960.707269 Z" fill="#048ECB"></path>
                <path d="M587.55745,982.514735 C587.55745,996.833735 584.745678,1011.01251 579.280881,1024.24158 C573.816084,1037.47064 565.806993,1049.4907 555.710274,1059.61568 C545.613556,1069.74089 533.627102,1077.77236 520.435912,1083.25214 C507.244723,1088.7317 493.105403,1091.55206 478.826909,1091.55206 C464.548414,1091.55206 450.409095,1088.7317 437.217905,1083.25214 C424.026716,1077.77236 412.040261,1069.74089 401.943543,1059.61568 C391.846825,1049.4907 383.837733,1037.47064 378.372936,1024.24158 C372.908139,1011.01251 370.096368,996.833735 370.096368,982.514735 L587.55745,982.514735 Z" fill="#F45B0F"></path>
                <path d="M587.55745,851.669941 L478.532246,851.669941 L478.532246,742.632613 C492.849436,742.632613 507.027073,745.452318 520.254011,750.932534 C533.480949,756.41275 545.499887,764.44444 555.623968,774.569646 C565.748048,784.694853 573.778845,796.715128 579.258451,809.943536 C584.738058,823.171945 587.55745,837.351159 587.55745,851.669941 Z" fill="#94C0D4"></path>
                <path d="M957.064492,612.37721 L957.064492,721.414538 L848.039288,721.414538 C848.039288,707.095756 850.85868,692.916542 856.338287,679.688134 C861.817894,666.459725 869.84869,654.43945 879.972771,644.314244 C890.096851,634.189037 902.115789,626.157348 915.342727,620.677132 C928.569665,615.196916 942.747302,612.37721 957.064492,612.37721 Z" fill="#161616"></path>
                <path d="M587.55745,873.477407 L696.582654,873.477407 L696.582654,982.514735 C682.265464,982.514735 668.087827,979.695029 654.860889,974.214813 C641.633951,968.734597 629.615013,960.702908 619.490932,950.577701 C609.366852,940.452495 601.336055,928.43222 595.856448,915.203811 C590.376842,901.975403 587.55745,887.796189 587.55745,873.477407 Z" fill="#FFD726"></path>
                <path d="M848.039288,1090.96267 L957.064492,1090.96267 L957.064492,1200 C942.747302,1200 928.569665,1197.17966 915.342727,1191.70003 C902.115789,1186.22039 890.096851,1178.18883 879.972771,1168.06362 C869.84869,1157.93863 861.817894,1145.91858 856.338287,1132.68951 C850.85868,1119.46045 848.039288,1105.28167 848.039288,1090.96267 Z" fill="#F45B0F"></path>
                <path d="M402.803929,1090.96267 C432.910149,1090.96267 457.316531,1115.37155 457.316531,1145.48134 L457.316531,1200 L348.291327,1200 L348.291327,1145.48134 C348.291327,1115.37155 372.697709,1090.96267 402.803929,1090.96267 Z" fill="#048ECB"></path>
                <path d="M109.025204,666.895874 C109.025204,697.005442 84.6190419,721.414538 54.5126019,721.414538 L0,721.414538 L0,612.37721 L54.5126019,612.37721 C84.6190419,612.37721 109.025204,636.786306 109.025204,666.895874 Z" fill="#048ECB"></path>
                <path d="M717.798369,666.895874 C717.798369,636.786306 742.204751,612.37721 772.310971,612.37721 L826.823573,612.37721 L826.823573,721.414538 L772.310971,721.414538 C742.204751,721.414538 717.798369,697.005442 717.798369,666.895874 Z" fill="#FFD726"></path>
                <path d="M848.039288,797.151277 C848.039288,767.041709 872.44567,742.632613 902.55189,742.632613 L957.064492,742.632613 L957.064492,851.669941 L902.55189,851.669941 C872.44567,851.669941 848.039288,827.260845 848.039288,797.151277 Z" fill="#E6E6E6"></path>
                <path d="M282.581542,1113.35953 C306.503987,1113.35953 325.896961,1132.75466 325.896961,1156.67976 C325.896961,1180.60487 306.503987,1200 282.581542,1200 C258.659097,1200 239.266123,1180.60487 239.266123,1156.67976 C239.266123,1132.75466 258.659097,1113.35953 282.581542,1113.35953 Z" fill="#E6E6E6"></path>
                <path d="M43.3154188,983.104126 C67.2378641,983.104126 86.6308377,1002.49926 86.6308377,1026.42436 C86.6308377,1050.34947 67.2378641,1069.7446 43.3154188,1069.7446 C19.3929736,1069.7446 0,1050.34947 0,1026.42436 C0,1002.49926 19.3929736,983.104126 43.3154188,983.104126 Z" fill="#048ECB"></path>
                <path d="M173.556338,612.37721 C197.478783,612.37721 216.871757,631.77234 216.871757,655.697446 C216.871757,679.622552 197.478783,699.017682 173.556338,699.017682 C149.633893,699.017682 130.240919,679.622552 130.240919,655.697446 C130.240919,631.77234 149.633893,612.37721 173.556338,612.37721 Z" fill="#161616"></path>
                <path d="M522.43699,874.066798 C546.359436,874.066798 565.752409,893.461928 565.752409,917.387033 C565.752409,941.312139 546.359436,960.707269 522.43699,960.707269 C498.514545,960.707269 479.121572,941.312139 479.121572,917.387033 C479.121572,893.461928 498.514545,874.066798 522.43699,874.066798 Z" fill="#161616"></path>
                <path d="M913.749073,983.104126 C937.671519,983.104126 957.064492,1002.49926 957.064492,1026.42436 C957.064492,1050.34947 937.671519,1069.7446 913.749073,1069.7446 C889.826628,1069.7446 870.433655,1050.34947 870.433655,1026.42436 C870.433655,1002.49926 889.826628,983.104126 913.749073,983.104126 Z" fill="#161616"></path>
                <path d="M1241.11935,699.017682 C1248.23925,699.017682 1255.28975,700.427752 1261.86747,703.167642 C1268.44519,705.907532 1274.42217,709.923377 1279.45794,714.985762 C1284.49153,720.048365 1288.48631,726.058503 1291.21022,732.672925 C1293.93413,739.287566 1295.33729,746.376955 1295.33729,753.536346 C1295.33729,760.695737 1293.93413,767.785126 1291.21022,774.399766 C1288.48631,781.014189 1284.49153,787.024326 1279.45794,792.086929 C1274.42217,797.149314 1268.44519,801.165159 1261.86747,803.905049 C1255.28975,806.644939 1248.23925,808.05501 1241.11935,808.05501 L1241.11935,699.017682 Z" fill="#161616"></path>
                <path d="M1480.9748,1090.96267 C1488.0947,1090.96267 1495.1452,1092.37361 1501.72292,1095.11263 C1508.30064,1097.85165 1514.27762,1101.86859 1519.31339,1106.9301 C1524.34698,1111.99379 1528.34176,1118.00393 1531.06567,1124.61813 C1533.78958,1131.23234 1535.19274,1138.32194 1535.19274,1145.48134 C1535.19274,1152.64073 1533.78958,1159.73033 1531.06567,1166.34454 C1528.34176,1172.95874 1524.34698,1178.96888 1519.31339,1184.03257 C1514.27762,1189.09409 1508.30064,1193.11102 1501.72292,1195.85004 C1495.1452,1198.58906 1488.0947,1200 1480.9748,1200 L1480.9748,1090.96267 Z" fill="#161616"></path>
                <path d="M1458.58043,612.37721 C1458.58043,626.696188 1455.76866,640.874988 1450.30386,654.104051 C1444.83906,667.333114 1436.82997,679.353171 1426.73325,689.478159 C1416.63654,699.603365 1404.65008,707.634837 1391.45889,713.114617 C1378.2677,718.594179 1364.12838,721.414538 1349.84989,721.414538 C1335.57139,721.414538 1321.43207,718.594179 1308.24089,713.114617 C1295.0497,707.634837 1283.06324,699.603365 1272.96652,689.478159 C1262.86981,679.353171 1254.86071,667.333114 1249.39592,654.104051 C1243.93112,640.874988 1241.11935,626.696188 1241.11935,612.37721 L1458.58043,612.37721 Z" fill="#94C0D4"></path>
                <path d="M1002.44255,934.774067 C1002.44255,920.455285 1005.25432,906.276071 1010.71912,893.047662 C1016.18392,879.819253 1024.19301,867.798978 1034.28973,857.673772 C1044.38644,847.548566 1056.3729,839.516876 1069.56409,834.03666 C1082.75528,828.557098 1096.8946,825.736739 1111.17309,825.736739 C1125.45159,825.736739 1139.59091,828.557098 1152.78209,834.03666 C1165.97328,839.516876 1177.95974,847.548566 1188.05646,857.673772 C1198.15317,867.798978 1206.16227,879.819253 1211.62706,893.047662 C1217.09186,906.276071 1219.90363,920.455285 1219.90363,934.774067 L1002.44255,934.774067 Z" fill="#94C0D4"></path>
                <path d="M1219.90363,829.862475 C1205.58644,829.862475 1191.40881,827.049739 1178.18187,821.584986 C1164.95493,816.120017 1152.93599,808.110252 1142.81191,798.012411 C1132.68783,787.914787 1124.65703,775.927 1119.17743,762.733908 C1113.69782,749.5406 1110.87843,735.400143 1110.87843,721.119843 C1110.87843,706.839543 1113.69782,692.699086 1119.17743,679.505777 C1124.65703,666.312469 1132.68783,654.324898 1142.81191,644.227275 C1152.93599,634.129434 1164.95493,626.119582 1178.18187,620.654743 C1191.40881,615.189925 1205.58644,612.37721 1219.90363,612.37721 L1219.90363,829.862475 Z" fill="#048ECB"></path>
                <path d="M1328.33951,960.707269 C1328.33951,975.026051 1325.52774,989.205265 1320.06294,1002.43367 C1314.59814,1015.66208 1306.58905,1027.68236 1296.49234,1037.80756 C1286.39562,1047.93277 1274.40916,1055.96446 1261.21797,1061.44468 C1248.02678,1066.92489 1233.88746,1069.7446 1219.60897,1069.7446 C1205.33047,1069.7446 1191.19116,1066.92489 1177.99997,1061.44468 C1164.80878,1055.96446 1152.82232,1047.93277 1142.7256,1037.80756 C1132.62889,1027.68236 1124.61979,1015.66208 1119.155,1002.43367 C1113.6902,989.205265 1110.87843,975.026051 1110.87843,960.707269 L1328.33951,960.707269 Z" fill="#F45B0F"></path>
                <path d="M1241.11935,1200 C1241.11935,1185.68122 1243.93112,1171.502 1249.39592,1158.2736 C1254.86071,1145.04519 1262.86981,1133.02491 1272.96652,1122.89971 C1283.06324,1112.7745 1295.0497,1104.74281 1308.24089,1099.26259 C1321.43207,1093.78238 1335.57139,1090.96267 1349.84989,1090.96267 C1364.12838,1090.96267 1378.2677,1093.78238 1391.45889,1099.26259 C1404.65008,1104.74281 1416.63654,1112.7745 1426.73325,1122.89971 C1436.82997,1133.02491 1444.83906,1145.04519 1450.30386,1158.2736 C1455.76866,1171.502 1458.58043,1185.68122 1458.58043,1200 L1241.11935,1200 Z" fill="#FFD726"></path>
                <path d="M1480.9748,852.259332 C1495.29199,852.259332 1509.46962,855.071417 1522.69656,860.536821 C1535.9235,866.002226 1547.94244,874.012208 1558.06652,884.110049 C1568.1906,894.20789 1576.22139,906.195678 1581.701,919.388334 C1587.18061,932.58099 1590,946.721882 1590,961.001965 C1590,975.282047 1587.18061,989.422939 1581.701,1002.6156 C1576.22139,1015.80825 1568.1906,1027.79604 1558.06652,1037.89388 C1547.94244,1047.99172 1535.9235,1056.0017 1522.69656,1061.46711 C1509.46962,1066.93251 1495.29199,1069.7446 1480.9748,1069.7446 L1480.9748,852.259332 Z" fill="#048ECB"></path>
                <path d="M1350.14455,829.862475 C1350.14455,815.543475 1352.95632,801.364697 1358.42112,788.135635 C1363.88592,774.906572 1371.89501,762.886515 1381.99173,752.761527 C1392.08845,742.63632 1404.0749,734.604849 1417.26609,729.125069 C1430.45728,723.645507 1444.5966,720.825147 1458.87509,720.825147 C1473.15359,720.825147 1487.29291,723.645507 1500.4841,729.125069 C1513.67529,734.604849 1525.66174,742.63632 1535.75846,752.761527 C1545.85518,762.886515 1553.86427,774.906572 1559.32907,788.135635 C1564.79386,801.364697 1567.60563,815.543475 1567.60563,829.862475 L1350.14455,829.862475 Z" fill="#F45B0F"></path>
                <path d="M1350.73388,960.707269 L1459.75908,960.707269 L1459.75908,1069.7446 C1445.44189,1069.7446 1431.26425,1066.92489 1418.03732,1061.44468 C1404.81038,1055.96446 1392.79144,1047.93277 1382.66736,1037.80756 C1372.54328,1027.68236 1364.51248,1015.66208 1359.03288,1002.43367 C1353.55327,989.205265 1350.73388,975.026051 1350.73388,960.707269 Z" fill="#048ECB"></path>
                <path d="M980.637509,1200 L980.637509,1090.96267 L1089.66271,1090.96267 C1089.66271,1105.28145 1086.84332,1119.46067 1081.36371,1132.68908 C1075.88411,1145.91749 1067.85331,1157.93776 1057.72923,1168.06297 C1047.60515,1178.18817 1035.58621,1186.21986 1022.35927,1191.70008 C1009.13234,1197.18029 994.954699,1200 980.637509,1200 Z" fill="#F45B0F"></path>
                <path d="M1350.14455,938.899804 L1241.11935,938.899804 L1241.11935,829.862475 C1255.43654,829.862475 1269.61417,832.682181 1282.84111,838.162397 C1296.06805,843.642613 1308.08699,851.674303 1318.21107,861.799509 C1328.33515,871.924715 1336.36595,883.94499 1341.84555,897.173399 C1347.32516,910.401807 1350.14455,924.581022 1350.14455,938.899804 Z" fill="#F45B0F"></path>
                <path d="M1089.66271,721.414538 L980.637509,721.414538 L980.637509,612.37721 C994.954699,612.37721 1009.13234,615.197548 1022.35927,620.677175 C1035.58621,626.156824 1047.60515,634.188383 1057.72923,644.313589 C1067.85331,654.438578 1075.88411,666.458635 1081.36371,679.687697 C1086.84332,692.91676 1089.66271,707.095538 1089.66271,721.414538 Z" fill="#E6E6E6"></path>
                <path d="M1535.4874,721.414538 C1505.38118,721.414538 1480.9748,697.005661 1480.9748,666.895874 L1480.9748,612.37721 L1590,612.37721 L1590,666.895874 C1590,697.005661 1565.59362,721.414538 1535.4874,721.414538 Z" fill="#048ECB"></path>
                <path d="M1219.90363,1145.48134 C1219.90363,1175.5909 1195.49725,1200 1165.39103,1200 L1110.87843,1200 L1110.87843,1090.96267 L1165.39103,1090.96267 C1195.49725,1090.96267 1219.90363,1115.37177 1219.90363,1145.48134 Z" fill="#E6E6E6"></path>
                <path d="M1089.66271,1015.22593 C1089.66271,1045.3355 1065.25633,1069.7446 1035.15011,1069.7446 L980.637509,1069.7446 L980.637509,960.707269 L1035.15011,960.707269 C1065.25633,960.707269 1089.66271,985.116365 1089.66271,1015.22593 Z" fill="#048ECB"></path>
                <path d="M1415.85434,938.310413 C1391.93189,938.310413 1372.53892,918.915282 1372.53892,894.990177 C1372.53892,871.065071 1391.93189,851.669941 1415.85434,851.669941 C1439.77678,851.669941 1459.16976,871.065071 1459.16976,894.990177 C1459.16976,918.915282 1439.77678,938.310413 1415.85434,938.310413 Z" fill="#FFD726"></path>
                <path d="M1023.95293,829.273084 C1000.03048,829.273084 980.637509,809.877954 980.637509,785.952849 C980.637509,762.027743 1000.03048,742.632613 1023.95293,742.632613 C1047.87537,742.632613 1067.26835,762.027743 1067.26835,785.952849 C1067.26835,809.877954 1047.87537,829.273084 1023.95293,829.273084 Z" fill="#FFD726"></path>
            </g>
        </g>
    </g>
</svg>