<svg width="17" height="17" viewBox="0 0 17 17" fill="none" xmlns="http://www.w3.org/2000/svg">
<path d="M2.35107 8.97528H0.5C0.367392 8.97528 0.240253 8.92261 0.146484 8.82884C0.0527162 8.73507 0 8.60789 0 8.47528C0 8.34267 0.0527162 8.2155 0.146484 8.12173C0.240253 8.02797 0.367392 7.97528 0.5 7.97528H2.35107C2.48368 7.97528 2.61082 8.02797 2.70459 8.12173C2.79836 8.2155 2.85107 8.34267 2.85107 8.47528C2.85107 8.60789 2.79836 8.73507 2.70459 8.82884C2.61082 8.92261 2.48368 8.97528 2.35107 8.97528Z" fill="#000421"/>
<path d="M16.5 8.97528H6.35107C6.21847 8.97528 6.09133 8.92261 5.99756 8.82884C5.90379 8.73507 5.85107 8.60789 5.85107 8.47528C5.85107 8.34267 5.90379 8.2155 5.99756 8.12173C6.09133 8.02797 6.21847 7.97528 6.35107 7.97528H16.5C16.6326 7.97528 16.7599 8.02797 16.8536 8.12173C16.9474 8.2155 17 8.34267 17 8.47528C17 8.60789 16.9474 8.73507 16.8536 8.82884C16.7599 8.92261 16.6326 8.97528 16.5 8.97528Z" fill="#000421"/>
<path d="M4.35106 10.9753C3.85503 10.9758 3.37007 10.8287 2.95787 10.5528C2.54567 10.2769 2.22483 9.88456 2.03624 9.42578C1.84765 8.96701 1.79982 8.46251 1.89879 7.97646C1.99776 7.49041 2.23905 7.04478 2.59203 6.69628C3.07112 6.24804 3.70291 5.99907 4.35899 6C5.01508 6.00093 5.64619 6.25169 6.12401 6.70128C6.4722 7.05239 6.70886 7.49858 6.80418 7.98378C6.89951 8.46899 6.84925 8.97155 6.65977 9.42829C6.4703 9.88503 6.15003 10.2756 5.73924 10.5508C5.32845 10.8261 4.84554 10.9737 4.35106 10.9753V10.9753ZM4.35106 6.97527C3.95323 6.97527 3.57169 7.13331 3.29039 7.41461C3.00909 7.69592 2.85106 8.07744 2.85106 8.47527C2.85471 8.87196 3.0139 9.25138 3.29442 9.53189C3.57494 9.81241 3.95436 9.97162 4.35106 9.97527C4.74888 9.97527 5.13042 9.81724 5.41173 9.53594C5.69303 9.25463 5.85106 8.87309 5.85106 8.47527C5.85106 8.07744 5.69303 7.69592 5.41173 7.41461C5.13042 7.13331 4.74888 6.97527 4.35106 6.97527V6.97527Z" fill="#000421"/>
<path d="M16.5 2.97528H11.3511C11.2185 2.97528 11.0913 2.92261 10.9976 2.82884C10.9038 2.73507 10.8511 2.60789 10.8511 2.47528C10.8511 2.34267 10.9038 2.2155 10.9976 2.12173C11.0913 2.02797 11.2185 1.97528 11.3511 1.97528H16.5C16.6326 1.97528 16.7599 2.02797 16.8536 2.12173C16.9474 2.2155 17 2.34267 17 2.47528C17 2.60789 16.9474 2.73507 16.8536 2.82884C16.7599 2.92261 16.6326 2.97528 16.5 2.97528Z" fill="#000421"/>
<path d="M7.35107 2.97528H0.5C0.367392 2.97528 0.240253 2.92261 0.146484 2.82884C0.0527162 2.73507 0 2.60789 0 2.47528C0 2.34267 0.0527162 2.2155 0.146484 2.12173C0.240253 2.02797 0.367392 1.97528 0.5 1.97528H7.35107C7.48368 1.97528 7.61082 2.02797 7.70459 2.12173C7.79836 2.2155 7.85107 2.34267 7.85107 2.47528C7.85107 2.60789 7.79836 2.73507 7.70459 2.82884C7.61082 2.92261 7.48368 2.97528 7.35107 2.97528Z" fill="#000421"/>
<path d="M9.35106 4.97527C8.85503 4.97577 8.37007 4.82872 7.95787 4.5528C7.54567 4.27688 7.22483 3.88456 7.03624 3.42578C6.84765 2.96701 6.79982 2.46251 6.89879 1.97646C6.99776 1.49041 7.23905 1.04478 7.59203 0.696276C8.07112 0.248041 8.70291 -0.000926181 9.35899 2.58924e-06C10.0151 0.000931359 10.6462 0.251691 11.124 0.701281C11.4722 1.05239 11.7089 1.49858 11.8042 1.98378C11.8995 2.46899 11.8492 2.97155 11.6598 3.42829C11.4703 3.88503 11.15 4.27557 10.7392 4.55081C10.3285 4.82606 9.84554 4.97373 9.35106 4.97527V4.97527ZM9.35106 0.975268C8.95323 0.975268 8.57169 1.13331 8.29039 1.41461C8.00909 1.69592 7.85106 2.07744 7.85106 2.47527C7.85471 2.87196 8.0139 3.25138 8.29442 3.53189C8.57494 3.81241 8.95436 3.97162 9.35106 3.97527C9.74888 3.97527 10.1304 3.81724 10.4117 3.53594C10.693 3.25463 10.8511 2.87309 10.8511 2.47527C10.8511 2.07744 10.693 1.69592 10.4117 1.41461C10.1304 1.13331 9.74888 0.975268 9.35106 0.975268Z" fill="#000421"/>
<path d="M16.5 14.9753H13.3511C13.2185 14.9753 13.0913 14.9226 12.9976 14.8288C12.9038 14.7351 12.8511 14.6079 12.8511 14.4753C12.8511 14.3427 12.9038 14.2155 12.9976 14.1217C13.0913 14.028 13.2185 13.9753 13.3511 13.9753H16.5C16.6326 13.9753 16.7599 14.028 16.8536 14.1217C16.9474 14.2155 17 14.3427 17 14.4753C17 14.6079 16.9474 14.7351 16.8536 14.8288C16.7599 14.9226 16.6326 14.9753 16.5 14.9753Z" fill="#000421"/>
<path d="M9.35107 14.9753H0.5C0.367392 14.9753 0.240253 14.9226 0.146484 14.8288C0.0527162 14.7351 0 14.6079 0 14.4753C0 14.3427 0.0527162 14.2155 0.146484 14.1217C0.240253 14.028 0.367392 13.9753 0.5 13.9753H9.35107C9.48368 13.9753 9.61082 14.028 9.70459 14.1217C9.79836 14.2155 9.85107 14.3427 9.85107 14.4753C9.85107 14.6079 9.79836 14.7351 9.70459 14.8288C9.61082 14.9226 9.48368 14.9753 9.35107 14.9753Z" fill="#000421"/>
<path d="M11.3511 16.9753C10.855 16.9758 10.3701 16.8287 9.95787 16.5528C9.54567 16.2769 9.22483 15.8846 9.03624 15.4258C8.84765 14.967 8.79982 14.4625 8.89879 13.9765C8.99776 13.4904 9.23905 13.0448 9.59203 12.6963C10.0711 12.248 10.7029 11.9991 11.359 12C12.0151 12.0009 12.6462 12.2517 13.124 12.7013C13.4722 13.0524 13.7089 13.4986 13.8042 13.9838C13.8995 14.469 13.8492 14.9715 13.6598 15.4283C13.4703 15.885 13.15 16.2756 12.7392 16.5508C12.3285 16.8261 11.8455 16.9737 11.3511 16.9753ZM11.3511 12.9753C10.9532 12.9753 10.5717 13.1333 10.2904 13.4146C10.0091 13.6959 9.85106 14.0774 9.85106 14.4753C9.85471 14.872 10.0139 15.2514 10.2944 15.5319C10.5749 15.8124 10.9544 15.9716 11.3511 15.9753C11.7489 15.9753 12.1304 15.8172 12.4117 15.5359C12.693 15.2546 12.8511 14.8731 12.8511 14.4753C12.8511 14.0774 12.693 13.6959 12.4117 13.4146C12.1304 13.1333 11.7489 12.9753 11.3511 12.9753Z" fill="#000421"/>
</svg>
