<svg width="98" height="83" viewBox="0 0 98 83" fill="none" xmlns="http://www.w3.org/2000/svg">
<path d="M71.05 0C85.9362 0 98 11.2162 98 26.9189C98 58.3243 61.25 76.2703 49 83C36.75 76.2703 0 58.3243 0 26.9189C0 11.2162 12.25 0 26.95 0C36.064 0 44.1 4.48649 49 8.97297C53.9 4.48649 61.936 0 71.05 0ZM53.5766 70.0071C57.8935 67.5126 61.789 65.0316 65.4346 62.3756C80.0415 51.7426 88.2 40.1226 88.2 26.9189C88.2 16.3308 80.6687 8.97297 71.05 8.97297C65.7776 8.97297 60.074 11.5303 55.9286 15.3169L49 21.6608L42.0714 15.3169C37.926 11.5303 32.2224 8.97297 26.95 8.97297C17.444 8.97297 9.8 16.4026 9.8 26.9189C9.8 40.1271 17.9634 51.7426 32.5605 62.3756C36.211 65.0316 40.1065 67.5127 44.4234 70.0027C45.8885 70.8506 47.3389 71.6626 49 72.5689C50.6611 71.6626 52.1115 70.8506 53.5766 70.0071V70.0071Z" fill="black"/>
</svg>
