<?xml version="1.0" encoding="utf-8"?>
<svg version="1.1" id="Layer_1" xmlns="http://www.w3.org/2000/svg" xmlns:xlink="http://www.w3.org/1999/xlink" x="0px" y="0px"
	 viewBox="0 0 1804.67 1666.029" enable-background="new 0 0 1804.67 1666.029" xml:space="preserve">
<g>
	<g>
		<polygon fill="#F8F9FB" points="1553.35,463.02 1768.95,823.43 1492.74,716.98 1492.74,716.93 		"/>
		<polygon fill="#FFFFFF" points="1492.72,716.99 1685.97,1166.24 1473.63,1208.82 		"/>
		<polygon fill="#DEDEE0" points="1685.97,1166.24 1535.86,1462.94 1473.63,1208.82 		"/>
		<polygon fill="#2A2627" points="1621.02,226.5 1621.02,415.65 1553.35,463.02 1473.63,518.83 		"/>
		<polygon fill="#282629" points="1621.02,226.5 1473.63,518.83 1450.7,250.25 		"/>
		<polygon fill="#0F0A0E" points="1621.02,226.5 1450.7,250.25 1450.7,74.46 		"/>
		<polygon fill="#D8D5D0" points="1553.35,463.02 1492.74,716.93 1473.63,518.83 		"/>
		<polygon fill="#A5A09C" points="1473.63,1208.82 1535.86,1462.94 1425.32,1441.65 		"/>
		<polygon fill="#E6E6E6" points="1492.74,716.98 1768.95,823.43 1685.97,1166.24 1492.72,716.99 1492.72,716.98 		"/>
		<polygon fill="#D6CFC9" points="1473.63,518.83 1492.72,716.97 1279.29,565.78 		"/>
		<polygon fill="#F7F7F5" points="1492.72,716.98 1171.76,846.36 1171.74,846.36 1066.67,782.49 1246.81,716.98 		"/>
		<polygon fill="#46413E" points="1450.7,250.25 1473.63,518.83 1259.63,394.9 		"/>
		<polygon fill="#BBB2AB" points="1473.63,1208.82 1425.32,1441.65 1214.88,1250.04 		"/>
		<polygon fill="#D0CECF" points="1473.63,518.83 1171.77,438.04 1259.63,394.9 		"/>
		<polygon fill="#A29F9A" points="1473.63,1208.82 1214.88,1250.04 1345.07,1080.27 		"/>
		<polygon fill="#090806" points="1450.7,74.46 1450.7,250.25 1217.05,94.67 		"/>
		<polygon fill="#453E36" points="1450.7,74.46 1217.05,94.67 1320.23,32.98 		"/>
		<polygon fill="#090806" points="1450.7,250.25 1259.63,394.9 1217.05,94.67 		"/>
		<polygon fill="#908B87" points="1425.32,1441.65 1214.88,1508.8 1214.88,1420.08 1214.88,1250.04 		"/>
		<polygon fill="#58555C" points="1171.75,846.37 1345.07,1080.27 1256.9,1080.27 1215.45,966.43 		"/>
		<polygon fill="#4A4750" points="1345.07,1080.27 1214.88,1250.04 1256.9,1080.27 		"/>
		<polygon fill="#737172" points="1217.05,94.67 1259.63,394.9 1171.76,307.57 1193.95,203.26 		"/>
		<polygon fill="#F4F3F1" points="1259.63,394.9 1171.76,438.02 1171.76,307.58 		"/>
		<path fill="#262626" d="M1256.9,1080.27l-41.45-113.84l-43.7-120.06l-0.01-0.01l-105.07,63.87v106.45l76.59,25.59v0.02
			L1256.9,1080.27z M1128.34,974.1h66.07l-42.59,42.58L1128.34,974.1z"/>
		<polygon fill="#949091" points="1214.88,1420.08 1214.88,1508.8 1021.11,1613.84 		"/>
		<polygon fill="#D8D7DC" points="1214.88,1250.04 1214.88,1420.08 1021.11,1613.84 1066.67,1398.25 		"/>
		<polygon fill="#F0F1F5" points="1066.67,1016.68 1214.88,1250.04 1066.67,1398.25 1001.98,1358.8 		"/>
		<polygon fill="#58555C" points="1194.41,974.1 1151.82,1016.68 1128.34,974.1 		"/>
		<polygon fill="#E1E1E1" points="1193.95,203.26 1171.74,307.57 902.34,162.36 		"/>
		<polygon fill="#EAE9E7" points="1171.77,438.04 1473.63,518.83 1279.29,565.78 1171.76,438.04 		"/>
		<polygon fill="#FCFCFC" points="1492.72,716.97 1492.72,716.98 1246.81,716.98 1066.67,782.49 902.34,781.67 738.02,782.49 
			557.88,716.98 311.95,716.98 525.4,565.78 632.93,438.04 632.93,438.02 632.93,307.57 902.34,162.36 1171.74,307.57 
			1171.76,307.57 1171.76,307.58 1171.76,438.02 1171.76,438.04 1279.29,565.78 		"/>
		<polygon fill="#E1E1E1" points="1171.76,846.36 1492.72,716.98 1492.72,716.99 1473.63,1208.82 1345.07,1080.27 1171.75,846.37 
			1171.74,846.36 		"/>
		<polygon fill="#FFFFFF" points="1171.74,846.36 1066.67,910.23 1066.67,782.49 		"/>
		<polygon fill="#63616E" points="1143.26,1042.29 1256.9,1080.27 1214.88,1250.04 1066.67,1016.68 1143.26,1042.27 		"/>
		<polygon fill="#FBFBFD" points="1066.67,910.23 1066.67,1016.68 902.34,993.75 		"/>
		<polygon fill="#FFFFFF" points="1066.67,782.49 1066.67,910.23 902.34,993.75 738.02,910.23 738.02,782.49 902.34,781.67 		"/>
		<polygon fill="#FDFCFF" points="1066.67,1016.68 1001.98,1358.8 957.76,1189.73 902.34,1306.27 846.92,1189.73 802.71,1358.8 
			738.02,1016.68 902.34,993.75 		"/>
		<polygon fill="#969499" points="1066.67,1398.25 1021.11,1613.84 1021.09,1613.85 1021.07,1613.87 902.34,1485.05 
			1001.98,1431.96 		"/>
		<polygon fill="#99918F" points="1021.09,1613.89 902.34,1632.98 902.34,1485.05 1021.07,1613.87 		"/>
		<polygon fill="#69666D" points="1001.98,1358.82 1001.98,1358.8 1066.67,1398.25 1001.98,1431.96 		"/>
		<polygon fill="#414048" points="1001.98,1358.82 1001.98,1431.96 902.34,1485.05 		"/>
		<polygon fill="#C7C8CD" points="1001.98,1358.8 1001.98,1358.82 902.34,1358.82 902.34,1306.27 957.76,1189.73 		"/>
		<polygon fill="#514E57" points="1001.98,1358.82 902.34,1485.05 802.71,1358.82 902.34,1358.82 		"/>
		<polygon fill="#99918F" points="902.34,1485.05 902.34,1632.98 783.6,1613.89 783.6,1613.87 		"/>
		<polygon fill="#C7C8CD" points="902.34,1306.27 902.34,1358.82 802.71,1358.82 802.71,1358.8 846.92,1189.73 		"/>
		<polygon fill="#414048" points="802.71,1358.82 902.34,1485.05 802.71,1431.96 		"/>
		<polygon fill="#969499" points="902.34,1485.05 783.6,1613.87 738.02,1398.25 802.71,1431.96 		"/>
		<polygon fill="#E1E1E1" points="902.34,162.36 632.93,307.57 610.74,203.26 		"/>
		<polygon fill="#FBFBFD" points="902.34,993.75 738.02,1016.68 738.02,910.23 		"/>
		<polygon fill="#69666D" points="802.71,1358.82 802.71,1431.96 738.02,1398.25 802.71,1358.8 		"/>
		<polygon fill="#F0F1F5" points="738.02,1016.68 802.71,1358.8 738.02,1398.25 589.81,1250.04 		"/>
		<polygon fill="#D8D7DC" points="738.02,1398.25 783.6,1613.87 589.81,1420.08 589.81,1250.04 		"/>
		<polygon fill="#949091" points="783.6,1613.87 589.81,1508.8 589.81,1420.08 		"/>
		<polygon fill="#FFFFFF" points="738.02,782.49 738.02,910.23 632.93,846.36 		"/>
		<polygon fill="#63616E" points="738.02,1016.68 589.81,1250.04 547.77,1080.27 661.42,1042.27 661.43,1042.27 		"/>
		<polygon fill="#F7F7F5" points="738.02,782.49 632.93,846.36 311.95,716.98 557.88,716.98 		"/>
		<polygon fill="#58555C" points="676.33,974.1 652.86,1016.68 610.28,974.1 		"/>
		<path fill="#262626" d="M632.93,846.36l-43.71,120.07l-41.45,113.84l113.65-38h0.01l76.59-25.59V910.23L632.93,846.36z
			 M652.86,1016.68l-42.58-42.58h66.05L652.86,1016.68z"/>
		<polygon fill="#F4F3F1" points="632.93,307.57 632.93,438.02 632.91,438.02 545.05,394.9 		"/>
		<polygon fill="#737172" points="587.62,94.67 632.93,307.57 545.05,394.9 545.04,394.9 		"/>
		<polygon fill="#EAE9E7" points="632.93,438.04 525.4,565.78 331.06,518.83 632.92,438.04 		"/>
		<polygon fill="#58555C" points="632.93,846.36 589.22,966.43 547.77,1080.27 459.62,1080.27 		"/>
		<polygon fill="#E1E1E1" points="632.93,846.36 459.62,1080.27 331.06,1208.82 311.95,716.98 		"/>
		<polygon fill="#908B87" points="589.81,1420.08 589.81,1508.8 379.37,1441.65 589.81,1250.04 		"/>
		<polygon fill="#4A4750" points="547.77,1080.27 589.81,1250.04 459.62,1080.27 		"/>
		<polygon fill="#A29F9A" points="459.62,1080.27 589.81,1250.04 331.06,1208.82 		"/>
		<polygon fill="#BBB2AB" points="589.81,1250.04 379.37,1441.65 331.06,1208.82 		"/>
		<polygon fill="#090806" points="587.62,94.67 545.04,394.9 353.99,250.25 		"/>
		<polygon fill="#090806" points="587.62,94.67 353.99,250.25 353.99,74.46 		"/>
		<polygon fill="#453E36" points="587.62,94.67 353.99,74.46 484.44,32.98 		"/>
		<polygon fill="#D0CECF" points="545.05,394.9 632.91,438.02 331.06,518.83 545.04,394.9 		"/>
		<polygon fill="#46413E" points="545.04,394.9 331.06,518.83 353.99,250.25 		"/>
		<polygon fill="#D6CFC9" points="525.4,565.78 311.95,716.98 331.06,518.83 		"/>
		<polygon fill="#A5A09C" points="331.06,1208.82 379.37,1441.65 268.83,1462.94 		"/>
		<polygon fill="#0F0A0E" points="353.99,74.46 353.99,250.25 183.67,226.5 		"/>
		<polygon fill="#282629" points="353.99,250.25 331.06,518.83 183.67,226.5 		"/>
		<polygon fill="#2A2627" points="183.67,226.5 331.06,518.83 251.34,463.02 183.67,415.65 		"/>
		<polygon fill="#D8D5D0" points="331.06,518.83 311.95,716.98 251.34,463.02 		"/>
		<polygon fill="#FFFFFF" points="311.95,716.98 331.06,1208.82 118.7,1166.24 		"/>
		<polygon fill="#DEDEE0" points="331.06,1208.82 268.83,1462.94 118.7,1166.24 		"/>
		<polygon fill="#F8F9FB" points="251.34,463.02 311.95,716.98 35.72,823.43 		"/>
		<polygon fill="#E6E6E6" points="311.95,716.98 118.7,1166.24 35.72,823.43 		"/>
	</g>
	<g>
		<polygon fill="#F8F9FB" points="1553.35,463.02 1768.95,823.43 1492.74,716.98 1492.74,716.93 		"/>
		<polygon fill="#FFFFFF" points="1492.72,716.99 1685.97,1166.24 1473.63,1208.82 		"/>
		<polygon fill="#DEDEE0" points="1685.97,1166.24 1535.86,1462.94 1473.63,1208.82 		"/>
		<polygon fill="#2A2627" points="1621.02,226.5 1621.02,415.65 1553.35,463.02 1473.63,518.83 		"/>
		<polygon fill="#282629" points="1621.02,226.5 1473.63,518.83 1450.7,250.25 		"/>
		<polygon fill="#0F0A0E" points="1621.02,226.5 1450.7,250.25 1450.7,74.46 		"/>
		<polygon fill="#D8D5D0" points="1553.35,463.02 1492.74,716.93 1473.63,518.83 		"/>
		<polygon fill="#A5A09C" points="1473.63,1208.82 1535.86,1462.94 1425.32,1441.65 		"/>
		<polygon fill="#E6E6E6" points="1492.74,716.98 1768.95,823.43 1685.97,1166.24 1492.72,716.99 1492.72,716.98 		"/>
		<polygon fill="#D6CFC9" points="1473.63,518.83 1492.72,716.97 1279.29,565.78 		"/>
		<polygon fill="#F7F7F5" points="1492.72,716.98 1171.76,846.36 1171.74,846.36 1066.67,782.49 1246.81,716.98 		"/>
		<polygon fill="#46413E" points="1450.7,250.25 1473.63,518.83 1259.63,394.9 		"/>
		<polygon fill="#BBB2AB" points="1473.63,1208.82 1425.32,1441.65 1214.88,1250.04 		"/>
		<polygon fill="#D0CECF" points="1473.63,518.83 1171.77,438.04 1259.63,394.9 		"/>
		<polygon fill="#A29F9A" points="1473.63,1208.82 1214.88,1250.04 1345.07,1080.27 		"/>
		<polygon fill="#090806" points="1450.7,74.46 1450.7,250.25 1217.05,94.67 		"/>
		<polygon fill="#453E36" points="1450.7,74.46 1217.05,94.67 1320.23,32.98 		"/>
		<polygon fill="#090806" points="1450.7,250.25 1259.63,394.9 1217.05,94.67 		"/>
		<polygon fill="#908B87" points="1425.32,1441.65 1214.88,1508.8 1214.88,1420.08 1214.88,1250.04 		"/>
		<polygon fill="#58555C" points="1171.75,846.37 1345.07,1080.27 1256.9,1080.27 1215.45,966.43 		"/>
		<polygon fill="#4A4750" points="1345.07,1080.27 1214.88,1250.04 1256.9,1080.27 		"/>
		<polygon fill="#737172" points="1217.05,94.67 1259.63,394.9 1171.76,307.57 1193.95,203.26 		"/>
		<polygon fill="#F4F3F1" points="1259.63,394.9 1171.76,438.02 1171.76,307.58 		"/>
		<path fill="#262626" d="M1256.9,1080.27l-41.45-113.84l-43.7-120.06l-0.01-0.01l-105.07,63.87v106.45l76.59,25.59v0.02
			L1256.9,1080.27z M1128.34,974.1h66.07l-42.59,42.58L1128.34,974.1z"/>
		<polygon fill="#949091" points="1214.88,1420.08 1214.88,1508.8 1021.11,1613.84 		"/>
		<polygon fill="#D8D7DC" points="1214.88,1250.04 1214.88,1420.08 1021.11,1613.84 1066.67,1398.25 		"/>
		<polygon fill="#F0F1F5" points="1066.67,1016.68 1214.88,1250.04 1066.67,1398.25 1001.98,1358.8 		"/>
		<polygon fill="#58555C" points="1194.41,974.1 1151.82,1016.68 1128.34,974.1 		"/>
		<polygon fill="#E1E1E1" points="1193.95,203.26 1171.74,307.57 902.34,162.36 		"/>
		<polygon fill="#EAE9E7" points="1171.77,438.04 1473.63,518.83 1279.29,565.78 1171.76,438.04 		"/>
		<polygon fill="#FCFCFC" points="1492.72,716.97 1492.72,716.98 1246.81,716.98 1066.67,782.49 902.34,781.67 738.02,782.49 
			557.88,716.98 311.95,716.98 525.4,565.78 632.93,438.04 632.93,438.02 632.93,307.57 902.34,162.36 1171.74,307.57 
			1171.76,307.57 1171.76,307.58 1171.76,438.02 1171.76,438.04 1279.29,565.78 		"/>
		<polygon fill="#E1E1E1" points="1171.76,846.36 1492.72,716.98 1492.72,716.99 1473.63,1208.82 1345.07,1080.27 1171.75,846.37 
			1171.74,846.36 		"/>
		<polygon fill="#FFFFFF" points="1171.74,846.36 1066.67,910.23 1066.67,782.49 		"/>
		<polygon fill="#63616E" points="1143.26,1042.29 1256.9,1080.27 1214.88,1250.04 1066.67,1016.68 1143.26,1042.27 		"/>
		<polygon fill="#FBFBFD" points="1066.67,910.23 1066.67,1016.68 902.34,993.75 		"/>
		<polygon fill="#FFFFFF" points="1066.67,782.49 1066.67,910.23 902.34,993.75 738.02,910.23 738.02,782.49 902.34,781.67 		"/>
		<polygon fill="#FDFCFF" points="1066.67,1016.68 1001.98,1358.8 957.76,1189.73 902.34,1306.27 846.92,1189.73 802.71,1358.8 
			738.02,1016.68 902.34,993.75 		"/>
		<polygon fill="#969499" points="1066.67,1398.25 1021.11,1613.84 1021.09,1613.85 1021.07,1613.87 902.34,1485.05 
			1001.98,1431.96 		"/>
		<polygon fill="#99918F" points="1021.09,1613.89 902.34,1632.98 902.34,1485.05 1021.07,1613.87 		"/>
		<polygon fill="#69666D" points="1001.98,1358.82 1001.98,1358.8 1066.67,1398.25 1001.98,1431.96 		"/>
		<polygon fill="#414048" points="1001.98,1358.82 1001.98,1431.96 902.34,1485.05 		"/>
		<polygon fill="#C7C8CD" points="1001.98,1358.8 1001.98,1358.82 902.34,1358.82 902.34,1306.27 957.76,1189.73 		"/>
		<polygon fill="#514E57" points="1001.98,1358.82 902.34,1485.05 802.71,1358.82 902.34,1358.82 		"/>
		<polygon fill="#99918F" points="902.34,1485.05 902.34,1632.98 783.6,1613.89 783.6,1613.87 		"/>
		<polygon fill="#C7C8CD" points="902.34,1306.27 902.34,1358.82 802.71,1358.82 802.71,1358.8 846.92,1189.73 		"/>
		<polygon fill="#414048" points="802.71,1358.82 902.34,1485.05 802.71,1431.96 		"/>
		<polygon fill="#969499" points="902.34,1485.05 783.6,1613.87 738.02,1398.25 802.71,1431.96 		"/>
		<polygon fill="#E1E1E1" points="902.34,162.36 632.93,307.57 610.74,203.26 		"/>
		<polygon fill="#FBFBFD" points="902.34,993.75 738.02,1016.68 738.02,910.23 		"/>
		<polygon fill="#69666D" points="802.71,1358.82 802.71,1431.96 738.02,1398.25 802.71,1358.8 		"/>
		<polygon fill="#F0F1F5" points="738.02,1016.68 802.71,1358.8 738.02,1398.25 589.81,1250.04 		"/>
		<polygon fill="#D8D7DC" points="738.02,1398.25 783.6,1613.87 589.81,1420.08 589.81,1250.04 		"/>
		<polygon fill="#949091" points="783.6,1613.87 589.81,1508.8 589.81,1420.08 		"/>
		<polygon fill="#FFFFFF" points="738.02,782.49 738.02,910.23 632.93,846.36 		"/>
		<polygon fill="#63616E" points="738.02,1016.68 589.81,1250.04 547.77,1080.27 661.42,1042.27 661.43,1042.27 		"/>
		<polygon fill="#F7F7F5" points="738.02,782.49 632.93,846.36 311.95,716.98 557.88,716.98 		"/>
		<polygon fill="#58555C" points="676.33,974.1 652.86,1016.68 610.28,974.1 		"/>
		<path fill="#262626" d="M632.93,846.36l-43.71,120.07l-41.45,113.84l113.65-38h0.01l76.59-25.59V910.23L632.93,846.36z
			 M652.86,1016.68l-42.58-42.58h66.05L652.86,1016.68z"/>
		<polygon fill="#F4F3F1" points="632.93,307.57 632.93,438.02 632.91,438.02 545.05,394.9 		"/>
		<polygon fill="#737172" points="587.62,94.67 632.93,307.57 545.05,394.9 545.04,394.9 		"/>
		<polygon fill="#EAE9E7" points="632.93,438.04 525.4,565.78 331.06,518.83 632.92,438.04 		"/>
		<polygon fill="#58555C" points="632.93,846.36 589.22,966.43 547.77,1080.27 459.62,1080.27 		"/>
		<polygon fill="#E1E1E1" points="632.93,846.36 459.62,1080.27 331.06,1208.82 311.95,716.98 		"/>
		<polygon fill="#908B87" points="589.81,1420.08 589.81,1508.8 379.37,1441.65 589.81,1250.04 		"/>
		<polygon fill="#4A4750" points="547.77,1080.27 589.81,1250.04 459.62,1080.27 		"/>
		<polygon fill="#A29F9A" points="459.62,1080.27 589.81,1250.04 331.06,1208.82 		"/>
		<polygon fill="#BBB2AB" points="589.81,1250.04 379.37,1441.65 331.06,1208.82 		"/>
		<polygon fill="#090806" points="587.62,94.67 545.04,394.9 353.99,250.25 		"/>
		<polygon fill="#090806" points="587.62,94.67 353.99,250.25 353.99,74.46 		"/>
		<polygon fill="#453E36" points="587.62,94.67 353.99,74.46 484.44,32.98 		"/>
		<polygon fill="#D0CECF" points="545.05,394.9 632.91,438.02 331.06,518.83 545.04,394.9 		"/>
		<polygon fill="#46413E" points="545.04,394.9 331.06,518.83 353.99,250.25 		"/>
		<polygon fill="#D6CFC9" points="525.4,565.78 311.95,716.98 331.06,518.83 		"/>
		<polygon fill="#A5A09C" points="331.06,1208.82 379.37,1441.65 268.83,1462.94 		"/>
		<polygon fill="#0F0A0E" points="353.99,74.46 353.99,250.25 183.67,226.5 		"/>
		<polygon fill="#282629" points="353.99,250.25 331.06,518.83 183.67,226.5 		"/>
		<polygon fill="#2A2627" points="183.67,226.5 331.06,518.83 251.34,463.02 183.67,415.65 		"/>
		<polygon fill="#D8D5D0" points="331.06,518.83 311.95,716.98 251.34,463.02 		"/>
		<polygon fill="#FFFFFF" points="311.95,716.98 331.06,1208.82 118.7,1166.24 		"/>
		<polygon fill="#DEDEE0" points="331.06,1208.82 268.83,1462.94 118.7,1166.24 		"/>
		<polygon fill="#F8F9FB" points="251.34,463.02 311.95,716.98 35.72,823.43 		"/>
		<polygon fill="#E6E6E6" points="311.95,716.98 118.7,1166.24 35.72,823.43 		"/>
	</g>
</g>
</svg>
