<svg width="17" height="18" viewBox="0 0 17 18" fill="none" xmlns="http://www.w3.org/2000/svg">
<path d="M8.09628 17.9288C7.6111 17.9327 7.13553 17.7934 6.7291 17.5284C6.32267 17.2634 6.00339 16.8844 5.81125 16.4388L5.37326 15.4478C5.24623 15.1558 5.02891 14.9122 4.75314 14.7529C4.47738 14.5936 4.15773 14.527 3.84128 14.5629L2.76425 14.6798C2.28313 14.731 1.79753 14.6414 1.3663 14.422C0.935076 14.2026 0.576837 13.8628 0.334932 13.4438C0.093027 13.0248 -0.0221223 12.5446 0.00351112 12.0614C0.0291445 11.5782 0.194457 11.1129 0.479341 10.7218L1.11826 9.84784C1.30732 9.5915 1.40939 9.28136 1.40939 8.96284C1.40939 8.64433 1.30732 8.33419 1.11826 8.07785L0.479341 7.20384C0.194457 6.81277 0.0291445 6.34744 0.00351112 5.86429C-0.0221223 5.38113 0.093027 4.90092 0.334932 4.4819C0.576837 4.06288 0.935076 3.72305 1.3663 3.50365C1.79753 3.28424 2.28313 3.1947 2.76425 3.24585L3.84128 3.36284C4.15764 3.39699 4.47672 3.32967 4.75229 3.17058C5.02786 3.01149 5.24562 2.76889 5.37424 2.47784L5.81027 1.48685C6.00642 1.04438 6.32681 0.668349 6.73251 0.404419C7.13822 0.140489 7.6118 0 8.0958 0C8.57979 0 9.05338 0.140489 9.45908 0.404419C9.86478 0.668349 10.1852 1.04438 10.3813 1.48685L10.8193 2.47784C10.9469 2.76949 11.1643 3.01269 11.4399 3.17192C11.7155 3.33115 12.0349 3.39805 12.3513 3.36284L13.4283 3.24585C13.9094 3.1947 14.395 3.28424 14.8263 3.50365C15.2575 3.72305 15.6157 4.06288 15.8576 4.4819C16.0995 4.90092 16.2147 5.38113 16.1891 5.86429C16.1634 6.34744 15.9981 6.81277 15.7132 7.20384L15.0743 8.07785C14.8853 8.33419 14.7832 8.64433 14.7832 8.96284C14.7832 9.28136 14.8853 9.5915 15.0743 9.84784L15.7132 10.7218C15.9981 11.1129 16.1634 11.5782 16.1891 12.0614C16.2147 12.5446 16.0995 13.0248 15.8576 13.4438C15.6157 13.8628 15.2575 14.2026 14.8263 14.422C14.395 14.6414 13.9094 14.731 13.4283 14.6798L12.3513 14.5629C12.0346 14.5258 11.7143 14.5919 11.4381 14.7513C11.1619 14.9108 10.9446 15.155 10.8183 15.4478L10.3823 16.4388C10.1899 16.8844 9.87042 17.2633 9.46384 17.5283C9.05726 17.7933 8.58159 17.9327 8.09628 17.9288ZM4.00827 13.5538C4.49221 13.5534 4.96579 13.6942 5.37082 13.9591C5.77585 14.2239 6.09472 14.6013 6.2883 15.0448L6.72629 16.0358C6.84419 16.3009 7.03639 16.526 7.27963 16.684C7.52288 16.8421 7.80671 16.9261 8.09677 16.9261C8.38684 16.9261 8.67067 16.8421 8.91391 16.684C9.15715 16.526 9.34936 16.3009 9.46726 16.0358L9.90329 15.0448C10.1164 14.5587 10.4791 14.1533 10.9387 13.8878C11.3983 13.6223 11.9308 13.5106 12.4583 13.5688L13.5352 13.6859C13.8237 13.7165 14.1149 13.6628 14.3735 13.5313C14.6321 13.3998 14.847 13.1961 14.9922 12.945C15.1374 12.6939 15.2066 12.4061 15.1915 12.1164C15.1764 11.8267 15.0778 11.5476 14.9073 11.3129L14.2673 10.4388C13.9522 10.0112 13.7822 9.49401 13.7822 8.96284C13.7822 8.43168 13.9522 7.91445 14.2673 7.48685L14.9073 6.61284C15.0778 6.37812 15.1764 6.09901 15.1915 5.80933C15.2066 5.51964 15.1374 5.23179 14.9922 4.98067C14.847 4.72954 14.6321 4.52591 14.3735 4.39442C14.1149 4.26294 13.8237 4.20923 13.5352 4.23984L12.4583 4.35684C11.9309 4.41554 11.3983 4.30394 10.9388 4.03838C10.4793 3.77281 10.1168 3.36719 9.90427 2.88084L9.46628 1.88985C9.34838 1.62483 9.15618 1.39967 8.91294 1.24165C8.66969 1.08364 8.38586 0.999542 8.0958 0.999542C7.80573 0.999542 7.5219 1.08364 7.27866 1.24165C7.03541 1.39967 6.84321 1.62483 6.72531 1.88985L6.28928 2.88084C6.07698 3.36757 5.71441 3.77349 5.25461 4.03911C4.79481 4.30473 4.26192 4.41608 3.73422 4.35684L2.65732 4.23984C2.36886 4.20923 2.07763 4.26294 1.81906 4.39442C1.5605 4.52591 1.3456 4.72954 1.20041 4.98067C1.05522 5.23179 0.986014 5.51964 1.00107 5.80933C1.01613 6.09901 1.1148 6.37812 1.28525 6.61284L1.92526 7.48685C2.24038 7.91445 2.41037 8.43168 2.41037 8.96284C2.41037 9.49401 2.24038 10.0112 1.92526 10.4388L1.28525 11.3129C1.1148 11.5476 1.01613 11.8267 1.00107 12.1164C0.986014 12.4061 1.05522 12.6939 1.20041 12.945C1.3456 13.1961 1.5605 13.3998 1.81906 13.5313C2.07763 13.6628 2.36886 13.7165 2.65732 13.6859L3.73422 13.5688C3.82522 13.5589 3.91673 13.5539 4.00827 13.5538V13.5538Z" fill="#000421"/>
<path d="M8.09627 11.4628C7.60182 11.4628 7.11848 11.3162 6.70735 11.0415C6.29623 10.7668 5.9758 10.3764 5.78658 9.91954C5.59736 9.46273 5.5479 8.96005 5.64436 8.4751C5.74083 7.99015 5.97882 7.5447 6.32845 7.19507C6.67808 6.84544 7.12365 6.60733 7.6086 6.51087C8.09355 6.4144 8.59612 6.46392 9.05293 6.65314C9.50975 6.84236 9.90018 7.16278 10.1749 7.5739C10.4496 7.98502 10.5963 8.46838 10.5963 8.96283C10.5963 9.62587 10.3329 10.2618 9.86409 10.7306C9.39525 11.1994 8.75931 11.4628 8.09627 11.4628ZM8.09627 7.46283C7.7996 7.46283 7.50957 7.5508 7.2629 7.71562C7.01622 7.88045 6.82394 8.11472 6.7104 8.38881C6.59687 8.6629 6.5672 8.96449 6.62508 9.25546C6.68296 9.54644 6.82582 9.81371 7.0356 10.0235C7.24538 10.2333 7.5127 10.3761 7.80367 10.434C8.09464 10.4919 8.39615 10.4622 8.67024 10.3486C8.94433 10.2351 9.17864 10.0429 9.34346 9.79619C9.50828 9.54952 9.59627 9.2595 9.59627 8.96283C9.59627 8.56501 9.43824 8.18348 9.15694 7.90218C8.87563 7.62087 8.49409 7.46283 8.09627 7.46283Z" fill="#000421"/>
</svg>
